<?xml version="1.0" standalone="no"?>
<!DOCTYPE svg PUBLIC "-//W3C//DTD SVG 20010904//EN"
 "http://www.w3.org/TR/2001/REC-SVG-20010904/DTD/svg10.dtd">
<svg version="1.0" xmlns="http://www.w3.org/2000/svg"
 width="512.000000pt" height="512.000000pt" viewBox="0 0 512.000000 512.000000"
 preserveAspectRatio="xMidYMid meet">
<metadata>
Created by potrace 1.14, written by Peter Selinger 2001-2017
</metadata>
<g transform="translate(0.000000,512.000000) scale(0.100000,-0.100000)"
fill="#000000" stroke="none">
<path d="M3841 4894 c-155 -32 -300 -142 -370 -282 -64 -126 -73 -312 -21
-429 10 -24 18 -43 17 -44 -8 -3 -51 -9 -99 -14 -31 -3 -65 -7 -75 -10 -11 -2
-53 -6 -94 -10 -41 -3 -81 -8 -89 -10 -8 -2 -40 -6 -70 -10 -30 -3 -71 -8 -90
-10 -19 -2 -60 -7 -90 -10 -30 -4 -66 -8 -80 -10 -14 -2 -52 -6 -85 -10 -33
-3 -79 -8 -101 -11 -23 -3 -77 -1 -120 5 -87 11 -155 20 -224 27 -25 2 -79 9
-120 14 -41 5 -97 12 -125 15 -149 16 -215 24 -243 30 -10 1 -48 6 -87 9 -38
4 -83 9 -100 11 -16 2 -55 7 -85 10 -30 3 -68 8 -85 10 -33 5 -107 14 -170 20
-103 11 -238 27 -330 40 -41 5 -94 11 -180 20 -27 3 -66 8 -85 11 -127 16
-163 9 -194 -39 -14 -20 -18 -40 -31 -147 -3 -22 -7 -58 -10 -80 -3 -22 -7
-59 -10 -82 -3 -24 -7 -59 -10 -78 -3 -19 -7 -55 -10 -80 -4 -25 -8 -56 -10
-70 -2 -14 -7 -52 -10 -85 -3 -33 -8 -71 -10 -85 -2 -14 -6 -47 -10 -75 -3
-27 -7 -59 -9 -70 -2 -11 -7 -54 -11 -95 -4 -41 -8 -77 -10 -80 -2 -3 -6 -34
-9 -70 -4 -36 -8 -75 -10 -85 -2 -11 -7 -49 -11 -85 -4 -36 -9 -72 -10 -80 -2
-8 -6 -44 -10 -80 -4 -36 -9 -72 -10 -81 -2 -9 -6 -40 -10 -70 -3 -30 -22
-178 -40 -329 -19 -151 -37 -295 -40 -320 -3 -25 -8 -63 -11 -85 -6 -45 -8
-62 -29 -235 -20 -165 -25 -200 -30 -230 -2 -14 -7 -54 -10 -90 -4 -36 -8 -72
-10 -80 -2 -8 -6 -40 -10 -71 -3 -31 -7 -65 -9 -76 -3 -11 -7 -46 -10 -79 -9
-82 -16 -139 -26 -209 -12 -78 -8 -116 14 -149 21 -33 46 -43 123 -51 32 -3
69 -8 83 -10 14 -3 56 -7 95 -11 38 -3 76 -7 85 -9 8 -1 44 -6 80 -10 36 -3
76 -8 90 -10 24 -3 59 -7 180 -21 30 -3 69 -7 85 -9 17 -2 53 -6 80 -9 28 -3
66 -8 85 -11 19 -3 57 -7 85 -10 27 -3 53 -9 56 -13 4 -4 10 -45 13 -90 8
-121 15 -147 46 -177 36 -34 85 -36 275 -9 17 2 55 6 85 9 30 3 70 8 89 10 18
3 59 8 90 11 31 3 66 7 79 9 13 2 53 7 90 11 37 3 74 8 82 9 8 2 47 6 85 10
39 4 84 9 100 11 17 2 55 6 85 9 30 3 69 7 85 10 177 25 222 25 410 0 17 -2
55 -7 85 -10 56 -5 104 -11 175 -20 22 -2 60 -7 85 -9 62 -7 229 -26 265 -31
17 -2 62 -7 100 -10 39 -4 78 -9 88 -11 10 -2 46 -6 80 -9 35 -3 88 -10 120
-14 81 -11 117 -5 148 25 29 28 36 51 44 159 7 85 10 103 16 109 3 3 25 8 49
11 25 3 61 7 80 9 117 15 140 18 176 21 54 4 154 16 184 21 14 2 54 6 90 10
36 3 72 7 80 9 8 2 44 6 80 9 68 7 121 13 180 21 19 2 59 7 89 11 66 7 91 16
113 40 32 36 31 67 -7 359 -3 22 -12 94 -20 160 -22 179 -26 207 -30 240 -9
62 -25 192 -30 245 -3 30 -8 66 -10 80 -5 29 -21 161 -30 239 -4 30 -8 61 -10
70 -1 9 -6 43 -9 76 -4 33 -9 71 -10 85 -2 14 -11 86 -20 160 -9 74 -18 146
-20 160 -3 14 -7 50 -10 80 -4 30 -8 66 -10 80 -3 14 -7 52 -11 85 -3 33 -8
69 -10 80 -3 11 -7 45 -10 75 -2 30 -7 66 -9 80 -3 14 -8 50 -10 80 -3 30 -8
71 -11 90 -2 19 -7 58 -10 85 -4 28 -8 57 -10 65 -2 8 -6 44 -10 80 -4 36 -8
76 -10 90 -1 14 -6 50 -10 80 -3 30 -8 66 -10 80 -2 14 -7 50 -10 80 -3 30 -8
66 -10 80 -2 14 -7 48 -10 75 -7 67 -16 134 -20 165 -2 14 -7 48 -11 75 -13
96 -68 125 -195 102 l-25 -5 2 93 c2 115 -8 170 -52 261 -48 101 -140 192
-247 243 -116 55 -218 69 -336 45z"/>
</g>
</svg>
